<svg width="44" height="48" viewBox="0 0 44 48" fill="none" xmlns="http://www.w3.org/2000/svg">
<g clip-path="url(#clip0_26_19890)">
<g clip-path="url(#clip1_26_19890)">
<path d="M2.7 48C1.935 48 1.29374 47.7444 0.77625 47.2333C0.25875 46.7222 0 46.0889 0 45.3334V34.6667C0 33.2 0.52875 31.9445 1.58626 30.9C2.64374 29.8555 3.915 29.3333 5.4 29.3333H37.8C39.285 29.3333 40.5563 29.8555 41.6137 30.9C42.6713 31.9445 43.2 33.2 43.2 34.6667V45.3334C43.2 46.0889 42.9413 46.7222 42.4237 47.2333C41.9063 47.7444 41.265 48 40.5 48H2.7ZM13.5 26.6666C9.765 26.6666 6.58126 25.3667 3.94874 22.7666C1.31624 20.1667 0 17.0222 0 13.3333C0 9.64445 1.31624 6.5 3.94874 3.9C6.58126 1.3 9.765 0 13.5 0H29.7C33.435 0 36.6187 1.3 39.2513 3.9C41.8837 6.5 43.2 9.64445 43.2 13.3333C43.2 17.0222 41.8837 20.1667 39.2513 22.7666C36.6187 25.3667 33.435 26.6666 29.7 26.6666H13.5ZM13.5 16C14.265 16 14.9063 15.7445 15.4237 15.2333C15.9413 14.7222 16.2 14.0888 16.2 13.3333C16.2 12.5778 15.9413 11.9444 15.4237 11.4333C14.9063 10.9222 14.265 10.6667 13.5 10.6667C12.735 10.6667 12.0937 10.9222 11.5762 11.4333C11.0587 11.9444 10.8 12.5778 10.8 13.3333C10.8 14.0888 11.0587 14.7222 11.5762 15.2333C12.0937 15.7445 12.735 16 13.5 16ZM29.7 16C30.465 16 31.1063 15.7445 31.6237 15.2333C32.1413 14.7222 32.4 14.0888 32.4 13.3333C32.4 12.5778 32.1413 11.9444 31.6237 11.4333C31.1063 10.9222 30.465 10.6667 29.7 10.6667C28.935 10.6667 28.2937 10.9222 27.7763 11.4333C27.2587 11.9444 27 12.5778 27 13.3333C27 14.0888 27.2587 14.7222 27.7763 15.2333C28.2937 15.7445 28.935 16 29.7 16Z" fill="#FF1675"/>
</g>
</g>
<defs>
<clipPath id="clip0_26_19890">
<rect width="43.2" height="48" fill="white"/>
</clipPath>
<clipPath id="clip1_26_19890">
<rect width="43.2" height="48" fill="white"/>
</clipPath>
</defs>
</svg>
