<svg width="24" height="24" viewBox="0 0 24 24" fill="none" xmlns="http://www.w3.org/2000/svg">
<g clip-path="url(#clip0_26_20031)">
<g clip-path="url(#clip1_26_20031)">
<path fill-rule="evenodd" clip-rule="evenodd" d="M12 0C5.3833 0 0 5.3833 0 12C0 18.6167 5.3833 24 12 24C18.6167 24 24 18.6167 24 12C24 5.3833 18.6167 0 12 0ZM5.5757 12.4242L6.4243 11.5757C6.6586 11.3414 7.0385 11.3414 7.2728 11.5757L9.6 13.903L16.7272 6.77574C16.9615 6.54143 17.3414 6.54143 17.5757 6.77574L18.4243 7.62426C18.6586 7.85857 18.6586 8.23848 18.4243 8.47278L10.0243 16.8728C9.78991 17.1071 9.41009 17.1071 9.1757 16.8728L5.5757 13.2728C5.3414 13.0385 5.3414 12.6586 5.5757 12.4242Z" fill="white"/>
</g>
</g>
<defs>
<clipPath id="clip0_26_20031">
<rect width="24" height="24" fill="white"/>
</clipPath>
<clipPath id="clip1_26_20031">
<rect width="24" height="24" fill="white"/>
</clipPath>
</defs>
</svg>
