<svg width="48" height="48" viewBox="0 0 48 48" fill="none" xmlns="http://www.w3.org/2000/svg">
<g clip-path="url(#clip0_26_19924)">
<g clip-path="url(#clip1_26_19924)">
<path d="M7.5 48C2.89999 48 -1 46.3999 -4.2 43.2C-7.4 40 -9 36.1001 -9 31.5C-9 27.85 -7.6625 24.6875 -4.9875 22.0125C-2.31251 19.3376 0.850005 18 4.5 18C7.69995 18 10.5375 19.05 13.0125 21.15C15.4875 23.25 17.05 25.8251 17.7 28.875C17.85 29.625 18.2125 30.25 18.7875 30.75C19.3624 31.25 19.9999 31.5 20.7 31.5C21.7 31.5 22.5 31.1625 23.1 30.4875C23.7 29.8125 23.925 29.05 23.775 28.2C23.075 23.8999 21.2 20.325 18.15 17.475C15.1 14.625 11.2999 12.8 6.75 12C7.65 8.3 9.68745 5.375 12.8625 3.225C16.0375 1.075 19.75 0 24 0C29.8999 0 34.875 2.025 38.925 6.075C42.975 10.125 45 15.1 45 21C48.15 21 50.9375 22.3999 53.3625 25.2C55.7876 28 57 31.1 57 34.5C57 38.25 55.6875 41.4375 53.0625 44.0625C50.4375 46.6875 47.25 48 43.5 48H7.5Z" fill="#FF1675"/>
</g>
</g>
<defs>
<clipPath id="clip0_26_19924">
<rect width="48" height="48" fill="white"/>
</clipPath>
<clipPath id="clip1_26_19924">
<rect width="66" height="48" fill="white" transform="translate(-9)"/>
</clipPath>
</defs>
</svg>
