<svg width="32" height="32" viewBox="0 0 32 32" fill="none" xmlns="http://www.w3.org/2000/svg">
<g clip-path="url(#clip0_26_19805)">
<g clip-path="url(#clip1_26_19805)">
<path d="M32 16C32 7.16344 24.8366 0 16 0C7.16344 0 0 7.16344 0 16C0 24.8366 7.16344 32 16 32C24.8366 32 32 24.8366 32 16Z" fill="#FF1675"/>
<path d="M17.2528 16.4399L19.9329 14.6392C20.1842 14.4717 20.3098 14.2413 20.3098 13.9482C20.3098 13.655 20.1842 13.4247 19.9329 13.2572L17.2528 11.4565C16.9736 11.2611 16.6875 11.2471 16.3943 11.4146C16.1012 11.5821 15.9546 11.8334 15.9546 12.1684V15.728C15.9546 16.063 16.1012 16.3142 16.3943 16.4818C16.6875 16.6493 16.9736 16.6353 17.2528 16.4399ZM10.6781 24.3128C10.2174 24.3826 9.80216 24.2744 9.43225 23.9882C9.06233 23.7021 8.84946 23.3287 8.79362 22.868L7.68388 13.7179C7.62804 13.2572 7.73972 12.8454 8.0189 12.4825C8.29808 12.1196 8.66799 11.9102 9.12864 11.8543L10.0918 11.7287V18.5547C10.0918 19.476 10.4198 20.2646 11.0759 20.9207C11.732 21.5768 12.5207 21.9048 13.442 21.9048H21.2311C21.1474 22.2398 20.9799 22.5295 20.7286 22.7738C20.4773 23.0181 20.1702 23.1611 19.8073 23.203L10.6781 24.3128ZM13.442 20.2297C12.9813 20.2297 12.587 20.0657 12.259 19.7377C11.9309 19.4097 11.7669 19.0153 11.7669 18.5547V9.34171C11.7669 8.88106 11.9309 8.48672 12.259 8.15868C12.587 7.83064 12.9813 7.66663 13.442 7.66663H22.6549C23.1156 7.66663 23.5099 7.83064 23.838 8.15868C24.166 8.48672 24.33 8.88106 24.33 9.34171V18.5547C24.33 19.0153 24.166 19.4097 23.838 19.7377C23.5099 20.0657 23.1156 20.2297 22.6549 20.2297H13.442Z" fill="white"/>
</g>
</g>
<defs>
<clipPath id="clip0_26_19805">
<rect width="32" height="32" fill="white"/>
</clipPath>
<clipPath id="clip1_26_19805">
<rect width="32" height="32" fill="white"/>
</clipPath>
</defs>
</svg>
