<svg width="143" height="36" viewBox="0 0 143 36" fill="none" xmlns="http://www.w3.org/2000/svg">
<path d="M33.2023 19.6363C34.1072 10.997 27.8374 3.25995 19.1982 2.35498C10.559 1.45002 2.8219 7.71985 1.91693 16.3591C1.01196 24.9983 7.28181 32.7354 15.921 33.6403C24.5602 34.5454 32.2974 28.2754 33.2023 19.6363Z" fill="#FF1675"/>
<path d="M9.98242 24.9159L13.4447 22.9166V26.8139L28.7153 17.9989L13.4447 9.1839V13.0813L9.98242 11.082V24.9159ZM15.0277 15.8233L18.7975 17.9989L15.0277 20.1746V15.8233ZM15.0277 22.0051L15.0726 21.9788L21.9634 17.9989L15.0277 13.9928V11.926L25.5456 17.9989L15.0277 24.0719V22.0051ZM11.5654 13.824L13.441 14.908V21.0898L11.5654 22.1739V13.824Z" fill="white"/>
<g clip-path="url(#clip0_26_21425)">
<path d="M43.8379 23.1568V8.9458H49.128C51.8413 8.9458 53.9886 11.0931 53.9886 13.6893C53.9886 16.2856 51.8413 18.4134 49.128 18.4134H46.5513V23.1568H43.8379ZM46.5513 15.8366H49.128C50.2602 15.8366 51.2753 14.8215 51.2753 13.6893C51.2753 12.5571 50.2602 11.542 49.128 11.542H46.5513V15.8366Z" fill="#130F25"/>
<path d="M55.9004 23.1568V8.94583H58.4772V23.1568H55.9004Z" fill="#130F25"/>
<path d="M65.1295 23.2741C62.6504 23.2741 60.9717 21.5758 60.9717 18.882V12.7915H63.5484V18.5305C63.5484 19.897 64.4658 20.795 65.6957 20.795C66.9449 20.795 67.8429 19.897 67.8429 18.5305V12.7915H70.4391V23.1569H68.5066L68.0576 22.1418C68.0576 22.1418 66.8278 23.2741 65.1295 23.2741Z" fill="#130F25"/>
<path d="M72.9238 23.1569V12.7915H74.8369L75.2858 13.9042C75.2858 13.9042 76.1838 12.6744 77.765 12.6744C78.2139 12.6744 78.5458 12.7915 78.5458 12.7915V15.4853C78.5458 15.4853 78.2139 15.3877 77.6478 15.3877C76.418 15.3877 75.5005 16.2857 75.5005 17.6326V23.1569H72.9238Z" fill="#130F25"/>
<path d="M83.2705 23.2741C81.0256 23.2741 79.7764 22.0248 79.7764 20.346C79.7764 18.3158 81.2404 16.8518 85.9839 16.8518C85.9839 15.7196 85.3007 15.0364 84.2856 15.0364C82.9387 15.0364 82.7239 16.1686 82.7239 16.1686H80.1277C80.3424 14.2555 81.9236 12.6744 84.5199 12.6744C86.8819 12.6744 88.5801 14.3727 88.5801 16.7347V23.1569H86.6671L86.2182 22.1418C86.2182 22.1418 85.086 23.2741 83.2705 23.2741ZM83.739 21.2439C85.086 21.2439 85.9839 20.346 85.9839 19.0967V18.6477C82.9387 18.6477 82.3726 19.2137 82.3726 20.1118C82.3726 20.6778 82.9387 21.2439 83.739 21.2439Z" fill="#130F25"/>
<path d="M90.958 23.1568V8.94583H93.5348V23.1568H90.958Z" fill="#130F25"/>
<path d="M99.738 23.2741C97.0246 23.2741 95.6776 21.9077 95.4629 19.897H97.942C98.0397 20.5607 98.6057 21.1268 99.5232 21.1268C100.421 21.1268 100.987 20.5607 100.987 19.9946C100.987 18.5305 95.6776 19.4285 95.6776 15.8367C95.6776 14.1384 97.1416 12.6744 99.4061 12.6744C101.885 12.6744 103.232 14.0213 103.466 15.8367H100.987C100.87 15.3877 100.304 14.8216 99.5232 14.8216C98.7229 14.8216 98.2739 15.2706 98.2739 15.8367C98.2739 17.3008 103.564 16.4028 103.564 20.1118C103.564 21.8101 102.1 23.2741 99.738 23.2741Z" fill="#130F25"/>
<path d="M105.504 23.1568V12.7914H108.081V23.1568H105.504ZM106.851 11.542C106.05 11.542 105.387 10.8783 105.387 10.078C105.387 9.29717 106.05 8.61395 106.851 8.61395C107.632 8.61395 108.315 9.29717 108.315 10.078C108.315 10.8783 107.632 11.542 106.851 11.542Z" fill="#130F25"/>
<path d="M115.084 26.983C111.239 26.983 110.458 23.6059 110.458 23.6059H113.054C113.054 23.6059 113.503 24.621 115.084 24.621C116.548 24.621 117.446 23.7231 117.446 22.4737V21.6929C117.446 21.6929 116.431 22.8251 114.733 22.8251C112.136 22.8251 110.009 20.6778 110.009 17.7497C110.009 14.8216 112.136 12.6744 114.733 12.6744C116.548 12.6744 117.661 13.8066 117.661 13.8066L118.11 12.7915H120.042V22.4737C120.042 25.1871 118.227 26.983 115.084 26.983ZM115.084 20.346C116.431 20.346 117.563 19.2137 117.563 17.7497C117.563 16.2857 116.431 15.1535 115.084 15.1535C113.718 15.1535 112.585 16.2857 112.585 17.7497C112.585 19.2137 113.718 20.346 115.084 20.346Z" fill="#130F25"/>
<path d="M122.528 23.1568V8.94583H125.105V13.8065C125.105 13.8065 126.022 12.6743 128.033 12.6743C130.298 12.6743 131.996 14.3726 131.996 17.0664V23.1568H129.4V17.3983C129.4 16.0513 128.502 15.1534 127.252 15.1534C126.022 15.1534 125.105 16.0513 125.105 17.3983V23.1568H122.528Z" fill="#130F25"/>
<path d="M138.642 23.274C136.612 23.274 135.148 21.81 135.148 19.5456V15.1534H133.566V13.0062H134.25C135.031 13.0062 135.479 12.5572 135.479 11.7764V10.3123H137.744V12.7914H139.989V15.1534H137.744V19.4284C137.744 20.3459 138.31 20.912 139.208 20.912C139.657 20.912 139.872 20.7949 139.872 20.7949V23.0397C139.872 23.0397 139.325 23.274 138.642 23.274Z" fill="#130F25"/>
</g>
<defs>
<clipPath id="clip0_26_21425">
<rect width="96.8" height="20.0006" fill="white" transform="translate(43.6953 7.99731)"/>
</clipPath>
</defs>
</svg>
