<svg width="39" height="48" viewBox="0 0 39 48" fill="none" xmlns="http://www.w3.org/2000/svg">
<g clip-path="url(#clip0_26_19941)">
<g clip-path="url(#clip1_26_19941)">
<path d="M16.68 25.6405L13.32 22.2379C12.84 21.7519 12.28 21.5089 11.64 21.5089C11 21.5089 10.44 21.7519 9.96 22.2379C9.48 22.724 9.24 23.3012 9.24 23.9696C9.24 24.6379 9.48 25.2152 9.96 25.7012L15 30.8658C15.48 31.3519 16.04 31.5949 16.68 31.5949C17.32 31.5949 17.88 31.3519 18.36 30.8658L28.56 20.5367C29.04 20.0507 29.28 19.4734 29.28 18.8051C29.28 18.1367 29.04 17.5595 28.56 17.0734C28.08 16.5874 27.51 16.3444 26.85 16.3444C26.19 16.3444 25.62 16.5874 25.14 17.0734L16.68 25.6405ZM19.2 48C18.92 48 18.66 47.9797 18.42 47.9393C18.18 47.8987 17.94 47.838 17.7 47.757C12.3 45.9342 8 42.5621 4.8 37.6405C1.6 32.719 0 27.4228 0 21.7519V10.2684C0 9.2557 0.29 8.34431 0.87 7.53418C1.45 6.72406 2.2 6.1367 3.12 5.77216L17.52 0.303798C18.08 0.101266 18.64 0 19.2 0C19.76 0 20.32 0.101266 20.88 0.303798L35.28 5.77216C36.2 6.1367 36.95 6.72406 37.53 7.53418C38.11 8.34431 38.4 9.2557 38.4 10.2684V21.7519C38.4 27.4228 36.8 32.719 33.6 37.6405C30.4 42.5621 26.1 45.9342 20.7 47.757C20.46 47.838 20.22 47.8987 19.98 47.9393C19.74 47.9797 19.48 48 19.2 48Z" fill="#FF1675"/>
</g>
</g>
<defs>
<clipPath id="clip0_26_19941">
<rect width="38.4" height="48" fill="white"/>
</clipPath>
<clipPath id="clip1_26_19941">
<rect width="38.4" height="48" fill="white"/>
</clipPath>
</defs>
</svg>
