<svg width="48" height="48" viewBox="0 0 48 48" fill="none" xmlns="http://www.w3.org/2000/svg">
<g clip-path="url(#clip0_26_19907)">
<g clip-path="url(#clip1_26_19907)">
<path d="M15.5333 24L19.4667 20.0667C20 19.5333 20.2667 18.9111 20.2667 18.2C20.2667 17.4889 20 16.8667 19.4667 16.3333C18.9333 15.8 18.3 15.5333 17.5667 15.5333C16.8333 15.5333 16.2 15.8 15.6667 16.3333L9.86667 22.1333C9.6 22.4 9.41111 22.6889 9.3 23C9.18889 23.3111 9.13333 23.6444 9.13333 24C9.13333 24.3556 9.18889 24.6889 9.3 25C9.41111 25.3111 9.6 25.6 9.86667 25.8667L15.6667 31.6667C16.2 32.2 16.8333 32.4667 17.5667 32.4667C18.3 32.4667 18.9333 32.2 19.4667 31.6667C20 31.1333 20.2667 30.5111 20.2667 29.8C20.2667 29.0889 20 28.4667 19.4667 27.9333L15.5333 24ZM32.4667 24L28.5333 27.9333C28 28.4667 27.7333 29.0889 27.7333 29.8C27.7333 30.5111 28 31.1333 28.5333 31.6667C29.0667 32.2 29.7 32.4667 30.4333 32.4667C31.1667 32.4667 31.8 32.2 32.3333 31.6667L38.1333 25.8667C38.4 25.6 38.5889 25.3111 38.7 25C38.8111 24.6889 38.8667 24.3556 38.8667 24C38.8667 23.6444 38.8111 23.3111 38.7 23C38.5889 22.6889 38.4 22.4 38.1333 22.1333L32.3333 16.3333C32.0667 16.0667 31.7667 15.8667 31.4333 15.7333C31.1 15.6 30.7667 15.5333 30.4333 15.5333C30.1 15.5333 29.7667 15.6 29.4333 15.7333C29.1 15.8667 28.8 16.0667 28.5333 16.3333C28 16.8667 27.7333 17.4889 27.7333 18.2C27.7333 18.9111 28 19.5333 28.5333 20.0667L32.4667 24ZM5.33333 48C3.86667 48 2.61111 47.4777 1.56667 46.4333C0.522223 45.3889 0 44.1333 0 42.6667V5.33333C0 3.86667 0.522223 2.61111 1.56667 1.56667C2.61111 0.522223 3.86667 0 5.33333 0H42.6667C44.1333 0 45.3889 0.522223 46.4333 1.56667C47.4777 2.61111 48 3.86667 48 5.33333V42.6667C48 44.1333 47.4777 45.3889 46.4333 46.4333C45.3889 47.4777 44.1333 48 42.6667 48H5.33333Z" fill="#FF1675"/>
</g>
</g>
<defs>
<clipPath id="clip0_26_19907">
<rect width="48" height="48" fill="white"/>
</clipPath>
<clipPath id="clip1_26_19907">
<rect width="48" height="48" fill="white"/>
</clipPath>
</defs>
</svg>
